<?xml version="1.0" standalone="no"?>
<!DOCTYPE svg PUBLIC "-//W3C//DTD SVG 20010904//EN"
 "http://www.w3.org/TR/2001/REC-SVG-20010904/DTD/svg10.dtd">
<svg version="1.0" xmlns="http://www.w3.org/2000/svg"
 width="128.000000pt" height="128.000000pt" viewBox="0 0 128.000000 128.000000"
 preserveAspectRatio="xMidYMid meet">
<metadata>
Created by potrace 1.11, written by Peter Selinger 2001-2013
</metadata>
<g transform="translate(0.000000,128.000000) scale(0.100000,-0.100000)"
fill="#000000" stroke="none">
<path d="M165 1164 c-64 -33 -101 -119 -77 -182 6 -15 13 -61 16 -102 24 -302
216 -614 457 -739 l86 -45 44 17 c258 99 498 472 508 793 3 104 -3 119 -63
153 -57 33 -183 77 -248 86 -24 3 -56 9 -73 12 -54 9 -319 5 -397 -7 -70 -10
-79 -9 -114 9 -46 25 -98 27 -139 5z m115 -39 c34 -17 49 -42 55 -87 8 -67
-54 -126 -123 -114 -44 7 -69 30 -83 77 -10 31 -9 43 7 75 30 61 85 79 144 49z
m562 -15 c89 -11 213 -50 276 -86 l42 -25 -4 -97 c-4 -83 -33 -233 -49 -248
-3 -3 -18 7 -33 22 -58 54 -140 77 -186 53 -11 -6 -22 -8 -25 -5 -3 3 6 11 21
17 20 9 23 15 15 26 -6 7 -18 13 -25 13 -8 0 -13 3 -12 8 4 13 -76 111 -97
118 -22 8 -32 4 -27 -10 2 -5 -4 -6 -12 -3 -15 6 -54 13 -116 21 l-35 5 25
-19 25 -18 -28 -7 c-16 -4 -41 -2 -58 6 -37 15 -129 20 -129 7 0 -5 -4 -7 -9
-4 -5 3 -14 -1 -20 -8 -8 -10 -9 -16 -1 -21 15 -10 12 -28 -4 -22 -10 4 -13 1
-9 -9 3 -7 0 -14 -6 -14 -6 0 -11 18 -11 40 0 45 11 54 68 54 23 0 28 3 17 8
-8 5 -32 4 -55 -2 -38 -10 -40 -12 -41 -53 0 -33 -2 -38 -9 -22 -7 17 -9 15
-9 -12 -1 -40 31 -73 71 -73 15 0 28 5 28 10 0 6 -11 10 -24 10 -13 0 -26 7
-30 15 -4 13 -2 13 14 5 23 -12 34 1 25 33 -6 20 -5 21 8 5 8 -10 19 -18 26
-18 6 0 11 -4 11 -10 0 -19 21 -10 30 13 5 12 9 19 9 15 1 -4 12 -3 25 2 19 7
28 5 41 -10 16 -18 16 -18 -3 -13 -11 2 -35 -3 -53 -13 -19 -10 -39 -17 -45
-16 -7 1 -14 -4 -18 -13 -3 -9 0 -15 8 -15 9 0 12 -7 9 -21 -8 -29 17 -70 51
-84 36 -15 79 -1 97 31 9 18 16 21 34 14 13 -5 25 -7 28 -4 9 10 116 -50 120
-67 8 -29 52 -45 81 -30 21 12 28 10 52 -8 16 -11 49 -24 74 -27 25 -3 49 -9
53 -14 17 -15 -77 -162 -162 -252 l-28 -30 -31 55 c-60 107 -228 214 -402 257
-212 53 -219 57 -243 140 -19 65 -40 180 -34 186 2 3 16 0 31 -6 116 -44 239
71 197 183 -12 31 -1 35 124 43 50 4 91 7 92 8 6 5 186 -5 255 -14z m-115
-234 c2 -1 4 -13 5 -26 3 -22 -1 -24 -51 -27 -42 -3 -56 0 -67 14 -20 28 16
51 70 45 22 -2 42 -5 43 -6z m-147 -26 c13 -8 13 -10 -2 -10 -9 0 -20 5 -23
10 -8 13 5 13 25 0z m205 -20 c18 -20 18 -21 -5 -12 -13 5 -26 14 -28 20 -6
19 13 14 33 -8z m-55 -29 c-20 -4 -41 -10 -48 -15 -23 -14 -69 -15 -69 -1 0
11 5 11 20 3 17 -9 19 -8 14 6 -5 14 2 16 56 15 52 -1 56 -2 27 -8z m110 -21
c-8 -5 -19 -10 -25 -10 -5 0 -3 5 5 10 8 5 20 10 25 10 6 0 3 -5 -5 -10z
m-259 -31 c11 -5 16 -15 13 -21 -5 -7 -11 -5 -20 6 -8 11 -14 13 -19 6 -3 -5
-11 -7 -17 -4 -6 4 -5 10 3 15 18 11 17 11 40 -2z m62 -13 c15 -22 15 -24 -1
-19 -10 2 -18 13 -18 24 0 24 0 24 19 -5z m157 -38 c-13 -15 -29 -28 -34 -28
-5 0 1 11 13 24 l23 24 -22 7 c-16 5 -19 10 -10 15 6 4 22 3 34 -3 l21 -10
-25 -29z m-265 11 c-10 -15 -25 -10 -19 6 4 8 10 12 15 9 5 -3 7 -10 4 -15z
m225 -4 c0 -9 -9 -15 -21 -15 -18 0 -19 2 -9 15 7 8 16 15 21 15 5 0 9 -7 9
-15z m205 0 c43 -21 95 -73 95 -95 0 -16 -7 -18 -57 -13 -92 9 -105 17 -98 57
4 20 2 36 -4 40 -18 12 -12 26 10 26 12 0 36 -7 54 -15z m-371 -10 c-4 -8 -10
-15 -15 -15 -5 0 -9 7 -9 15 0 8 7 15 15 15 9 0 12 -6 9 -15z m-41 -28 c-3 -5
-10 -4 -15 1 -6 6 -7 16 -3 22 6 9 9 9 16 -1 4 -7 5 -17 2 -22z m329 -9 c-7
-7 -12 -8 -12 -2 0 14 12 26 19 19 2 -3 -1 -11 -7 -17z m8 -22 c0 -11 -19 -15
-25 -6 -3 5 1 10 9 10 9 0 16 -2 16 -4z m-30 -20 c0 -3 -4 -8 -10 -11 -5 -3
-10 -1 -10 4 0 6 5 11 10 11 6 0 10 -2 10 -4z m-387 -126 c152 -38 299 -126
337 -200 l20 -39 -27 -25 c-15 -14 -55 -39 -90 -56 l-63 -31 -72 38 c-49 25
-100 64 -154 118 -81 79 -168 200 -157 218 8 13 114 1 206 -23z"/>
<path d="M180 1078 c-26 -28 -26 -68 0 -96 42 -45 120 -13 120 49 0 60 -79 91
-120 47z"/>
</g>
</svg>
